# xmcd
#
# Track frame offsets:
#	150
#	5746
#	22933
#	44616
#	66263
#	92657
#	128913
#	156770
#	186229
#	237778
#
# Disc length: 3591 seconds
#
# Revision: 1
# Processed by: cddbd v1.4PL0 Copyright (c) Steve Scherf et al.
# Submitted via: audiograbber 1.80.04
#
DISCID=7f0e050a
DTITLE=rio no mar - sounds of the maghreb
DYEAR=2002
DGENRE=
TTITLE0=river in the sea
TTITLE1=heart's ink
TTITLE2=felicenciado
TTITLE3=star walls
TTITLE4=candle from God
TTITLE5=hurja
TTITLE6=turban in a twist
TTITLE7=Hua qrib!
TTITLE8=God's sueq
TTITLE9=extra soundtrack
EXTD=
EXTT0=
EXTT1=
EXTT2=
EXTT3=
EXTT4=
EXTT5=
EXTT6=
EXTT7=
EXTT8=
EXTT9=
PLAYORDER=
